<?xml version="1.0" encoding="utf-8"?>
<!-- Generator: Adobe Illustrator 23.0.1, SVG Export Plug-In . SVG Version: 6.00 Build 0)  -->
<svg version="1.1" id="Layer_1" xmlns="http://www.w3.org/2000/svg" xmlns:xlink="http://www.w3.org/1999/xlink" x="0px" y="0px"
	 viewBox="0 0 1280 1024" style="enable-background:new 0 0 1280 1024;" xml:space="preserve">
<style type="text/css">
	.st0{display:none;}
	.st1{display:inline;fill:#011E60;}
	.st2{fill:#FFFFFF;}
	.st3{fill:#F9F9F9;}
	.st4{fill:#F4F4F4;}
</style>
<g id="background" class="st0">
	<rect x="-6.2" class="st1" width="1286.2" height="1024"/>
</g>
<g>
	<polygon class="st2" points="491,585.8 386.4,585.8 386.4,117.7 892.7,117.7 892.7,235 879.7,235 879.7,130.7 399.4,130.7 
		399.4,572.8 491,572.8 	"/>
	<path class="st2" d="M538.4,587.9c-2.9,0-6.1-0.3-9.6-0.7c-1.9-0.2-3.7-0.4-4.9-0.4c-3.6-0.1-6.4-3-6.4-6.6
		c0.1-3.6,3.1-6.5,6.6-6.4c1.7,0,3.7,0.2,6,0.5c3,0.3,9,1,11.1,0.4c0.3-0.5,1.1-2.2,1.4-7.5c0.9-16.9-1.6-33.4-4.2-50.8
		c-1-6.5-2-13.3-2.8-20c-2-16.3-2.3-33.3-0.7-52c0.3-3.6,0.5-7.2,0.7-11c0.6-11.6,1.1-23.6,5.2-35.1c2-5.8,4.8-11.4,8.3-16.4
		l0.1-0.1c0.8-1.2,2.1-2.3,4.3-4.3c1.1-1.1,3.2-3,4-3.9c1.1-2.6,3.8-4.3,6.8-4c3.5,0.4,6.1,3.6,5.7,7.2l0,0.2
		c-0.9,7.5,1.8,16.6,9.9,20.4c1.2,0.5,2.2,0.8,3,0.8c0.9,0.1,2.2-0.3,3.1-0.7c3.3-1.2,6.1-3.1,9-6c0.6-0.7,1.4-1.7,2.2-2.8
		c1.9-2.6,4-5.6,7.2-7.3c1.5-0.8,3.4-1,5-0.5c1.7,0.5,3.1,1.7,3.9,3.3c8.6,16.8,5.1,39.4-2.1,54.4c-1.3,2.7-2.8,5.3-4.3,7.8
		c-2,3.4-3.8,6.6-5.1,9.9c0.9,0,1.8,0,2.7,0c1.5,0,3.1,0,4.6,0.1c5.5,0.5,9.4,1.1,15.8,1.9c10.2,1.3,15.1,2.1,20.2,3.3
		c4.8,1.2,10.5,2.8,17.1,6.1c9.5,4.9,15.5,10.5,18.1,12.9c3.2,3,8.6,8,13.4,16.1c4,6.7,6.9,14,8.5,21.8c2.5,11.3,3.6,22,3.3,32.8
		c-0.2,7.1-1,14.3-2.3,21.4l17.5,0.2c3.6,0,6.5,3,6.4,6.6c0,3.6-2.9,6.4-6.5,6.4h-0.1l-25.4-0.3c-2,0-3.8-0.9-5.1-2.5
		c-1.2-1.6-1.6-3.6-1.2-5.5c2.2-9,3.4-17.7,3.6-26.6c0.2-9.7-0.8-19.4-3-29.7l0-0.1c-1.3-6.3-3.6-12.3-6.9-17.7
		c-3.9-6.5-8.3-10.6-11.2-13.3c-2.3-2.2-7.2-6.7-15.1-10.8c-5.4-2.7-10.1-4-14.4-5.1c-4.4-1.1-9.1-1.8-18.8-3.1
		c-6.8-0.9-10.3-1.4-15.3-1.9c-0.9-0.1-2.1-0.1-3.3-0.1c-2.8,0-6,0-9.1-0.9c-2.6-0.7-5.6-1.6-7.2-4.7c-1.7-3.1-0.7-6,0.3-9.1
		l0.2-0.6c1.7-5.3,4.4-9.8,6.9-14.2c1.4-2.4,2.7-4.7,3.8-7c4.3-8.9,7.1-21.6,5.4-32.8c-0.2,0.2-0.4,0.4-0.5,0.6
		c-4.2,4.4-8.8,7.4-14,9.2l-0.1,0c-2.1,0.7-4.9,1.5-8,1.3c-2.4-0.1-4.9-0.8-7.6-1.9l-0.1,0c-7.6-3.5-13.2-10-15.9-17.9
		c-2.2,3.5-4.1,7.3-5.5,11.4c-3.4,9.8-4,20.8-4.5,31.4c-0.2,3.8-0.4,7.7-0.7,11.5c-1.5,17.8-1.3,34,0.7,49.4
		c0.8,6.5,1.8,13.2,2.8,19.6c2.6,17.3,5.3,35.3,4.4,53.4c-0.2,4-0.7,14.7-8.5,18.5C544.6,587.5,541.7,587.9,538.4,587.9z"/>
	<path class="st2" d="M624.2,586L624.2,586l-22-0.3c-3.6,0-6.5-3-6.4-6.6c0-3.6,3-6.5,6.6-6.4l15,0.2c-0.1-2.4-0.2-5.3-0.3-8.1
		c-0.2-7-0.5-15.4-0.5-17.2c-0.2-14.5,0.7-25.6,3-36.1c6.7-30,16.5-54.6,30.1-75.2c5-7.6,10.7-14.8,16.3-21.8
		c2.9-3.7,5.9-7.5,8.8-11.2c17.8-23.6,34.4-44.6,50.9-64.1l0.6-0.7c2.7-3.2,5.2-6.2,6.8-9.4c4.1-8,4.7-17.7,5.3-28.1
		c0.5-7.9,1-16,3.1-23.8c0-0.1,0.1-0.3,0.1-0.4l1.4-3.9c1.7-5,3.5-10.1,5.4-15.1c0.1-0.4,0.3-0.8,0.5-1.1c2-3.3,4.6-6.7,7.6-9.8
		c4.7-4.8,9.3-7.8,12.4-9.4c0.2-0.1,0.4-0.2,0.6-0.3c3.4-1.4,9-3.2,16.2-4.2c7.1-1,14.5-0.7,21.8,0.7c0.3,0.1,0.6,0.1,0.9,0.2
		c6.9,2.3,13.4,5.7,19.5,10.1c4.6,3.3,8.7,7.1,12.3,11.3c0.9,1.1,1.7,2.2,2.4,3.2c0.6,0.9,1.7,2.5,2.2,2.8c2.2,0.7,7.4,0,10.9-0.4
		c2.2-0.3,4.3-0.5,6.1-0.6l19.3-0.6c3.4-0.1,6.3,2.4,6.7,5.7c0.8,6.6,1.4,14.4-0.5,22.1c-2,8.3-6.9,16.1-14.3,23.2
		c-8.4,8.2-18.3,14.3-27.9,20.3c-3,1.9-6.2,3.8-9.1,5.8l-0.1,0.1c-0.9,0.6-2.4,1.6-2.7,2.1c-0.1,0.2-0.3,1.1,0.4,4.1l0,0.1
		c0.4,1.8,0.8,3.6,1.1,5.4c2.6,12.1,5.2,24.6,4.3,38.1c-0.3,4.1-0.6,8.2-0.9,12.3c-0.3,4.1-0.5,8.2-0.8,12.3c-0.5,7-1,14.2-2.5,21.4
		c-1.1,5.4-2.9,10.5-4.6,15.4c-1.2,3.6-2.4,7-3.3,10.4c-2,8-3.6,16.8-4.8,27.9c-2,17.2-3.6,37.2-0.5,54.4c2,10.5,3.8,20.2,5.5,29.9
		c4.5,0.2,9.1,0.5,13.6,0.8c3.6,0.2,6.3,3.3,6.1,6.9c-0.2,3.6-3.3,6.3-6.9,6.1c-5.9-0.4-11.9-0.7-17.8-1l-0.8,0
		c-3.1-0.1-5.6-2.4-6.1-5.5c-1.8-11.4-3.9-22.5-6.3-34.8c-3.5-18.9-1.8-40.1,0.3-58.3c1.3-11.6,3-21,5.2-29.7
		c1.1-4,2.3-7.7,3.6-11.3c1.6-4.8,3.2-9.3,4.1-13.9c1.3-6.3,1.8-12.8,2.3-19.7c0.3-4.1,0.6-8.1,0.8-12.2c0.3-4.1,0.6-8.3,0.9-12.4
		c0.8-11.6-1.5-22.7-4-34.5c-0.4-1.8-0.8-3.6-1.1-5.4c-0.8-3.8-1.4-8.3,0.6-12.5c1.7-3.6,4.8-5.7,7-7.3l0.1-0.1l0.1-0.1
		c3.1-2,6.3-4,9.4-6c9-5.6,18.3-11.4,25.8-18.6c5.6-5.3,9.3-11.2,10.7-17c0.9-3.7,1-7.6,0.8-11.5l-13.2,0.4c-1.3,0-3.2,0.3-5.1,0.5
		c-5.4,0.6-11.6,1.3-16.4-0.2c-4.5-1.5-7-5.1-8.9-7.7c-0.6-0.8-1.1-1.6-1.6-2.1c-3-3.4-6.4-6.6-10.1-9.3c-6-4.3-11.7-6.8-15.6-8.1
		c-5.8-1.1-11.6-1.2-17.2-0.5c-5.6,0.8-10,2.2-12.7,3.3c-2.3,1.2-5.5,3.4-8.9,6.8c-2.6,2.7-4.4,5.2-5.5,6.9
		c-1.7,4.7-3.4,9.6-5.1,14.3l-1.3,3.7c-1.7,6.4-2.2,13.4-2.6,20.9c-0.7,11.2-1.4,22.8-6.7,33.2c-2.3,4.5-5.4,8.2-8.4,11.8l-0.6,0.7
		c-16.4,19.3-32.9,40.1-50.5,63.5c-2.9,3.9-6,7.8-9,11.5c-5.4,6.7-10.9,13.7-15.6,20.9c-12.7,19.3-22,42.5-28.3,70.8
		c-2.1,9.4-2.9,19.6-2.6,33.1l0,0.1c0,2.9,0.8,27.7,1,31c0.1,0.3,0.1,0.7,0.1,1.1C630.7,583.1,627.8,586,624.2,586z M630.1,576.8
		c0.2,0.4,0.3,0.9,0.4,1.4C630.5,577.7,630.3,577.2,630.1,576.8z M624.3,573L624.3,573c0.7,0,1.4,0.1,2,0.3
		C625.7,573.1,625,573,624.3,573z"/>
	<path class="st2" d="M777.8,585.8h-10.1c-7.7,0-12.5-3.5-14.5-10.8c-12.5-45.1-12.1-94.6,1.1-139.4c1-3.4,4.6-5.4,8.1-4.4
		c3.4,1,5.4,4.6,4.4,8.1c-12.6,42.5-13,89.5-1.1,132.2c0.2,0.6,0.3,0.9,0.4,1.1c0.2,0,0.7,0.1,1.5,0.1h10.1c3.6,0,6.5,2.9,6.5,6.5
		S781.4,585.8,777.8,585.8z"/>
	<path class="st2" d="M778,338.7c-2.5,0-4.6-0.8-6.1-1.6l-0.2-0.1c-3.6-2.2-5.1-5.6-6.1-8.4c-3.6-9.8-6.4-19.6-8.4-29.2
		c-1.5-7.1-2.7-14.3-3.4-21.6c-0.1-0.7-0.2-1.4-0.2-2.1c-0.8-7.2-1.7-15.3,2.3-23.3c4.5-8.8,11-14.5,18.5-16.1
		c5.1-1.1,20.6-4.5,29.6,7.6c3.7,5,5.3,10.9,6.5,16.5c2.9,14.9,2.6,29.2-1,41.6c-1.5,5.1-13.1,30.5-26.2,35.7
		C781.3,338.4,779.5,338.7,778,338.7z M778.7,326L778.7,326z M784.8,248c-2.1,0-4.6,0.3-7.7,1c-5,1.1-8.5,6.9-9.7,9.3
		c-2.3,4.5-1.7,9.8-1,15.9c0.1,0.7,0.2,1.5,0.2,2.2c0.7,6.8,1.8,13.6,3.2,20.2l0,0.1c1.9,9,4.5,18.2,7.9,27.4l0,0.1
		c0.2,0.7,0.4,1.1,0.6,1.4c1.4-0.6,5-3.2,10-10.8c4.6-7,7.8-14.2,8.5-16.4c3-10.4,3.3-22.6,0.8-35.4c-1-4.7-2-8.5-4.1-11.3
		C792.2,249.8,790,248,784.8,248z"/>
	<path class="st3" d="M285.6,935.3v-49H304c3.3,0,5.7,0.2,7.4,0.5c2.4,0.4,4.4,1.2,6,2.3c1.6,1.1,2.9,2.7,3.9,4.7
		c1,2,1.5,4.3,1.5,6.7c0,4.2-1.3,7.7-4,10.6c-2.6,2.9-7.4,4.3-14.4,4.3H292v19.9H285.6z M292,909.6h12.7c4.2,0,7.2-0.8,8.9-2.3
		c1.8-1.6,2.6-3.8,2.6-6.6c0-2-0.5-3.8-1.6-5.3c-1-1.5-2.4-2.4-4.1-2.9c-1.1-0.3-3.1-0.4-6-0.4H292V909.6z"/>
	<polygon class="st3" points="351.3,935.3 351.3,886.3 386.7,886.3 386.7,892.1 357.8,892.1 357.8,907.1 384.9,907.1 384.9,912.8 
		357.8,912.8 357.8,929.5 387.8,929.5 387.8,935.3 	"/>
	<polygon class="st3" points="429.2,935.3 429.2,892.1 413.1,892.1 413.1,886.3 451.9,886.3 451.9,892.1 435.7,892.1 435.7,935.3 	
		"/>
	<path class="st3" d="M516,935.3v-49h18.4c3.7,0,6.7,0.5,9,1.5c2.3,1,4,2.5,5.3,4.6c1.3,2.1,1.9,4.2,1.9,6.5c0,2.1-0.6,4.1-1.7,5.9
		c-1.1,1.8-2.9,3.3-5.1,4.5c3,0.9,5.2,2.3,6.8,4.4c1.6,2.1,2.4,4.6,2.4,7.4c0,2.3-0.5,4.4-1.5,6.4c-1,2-2.2,3.5-3.6,4.6
		c-1.4,1.1-3.2,1.9-5.4,2.4c-2.1,0.5-4.8,0.8-7.9,0.8H516z M522.5,906.9H533c2.9,0,4.9-0.2,6.2-0.6c1.6-0.5,2.9-1.3,3.7-2.4
		c0.8-1.1,1.3-2.6,1.3-4.3c0-1.6-0.4-3.1-1.2-4.3c-0.8-1.2-1.9-2.1-3.3-2.5c-1.4-0.5-3.9-0.7-7.4-0.7h-9.8V906.9z M522.5,929.5h12.2
		c2.1,0,3.6-0.1,4.4-0.2c1.5-0.3,2.7-0.7,3.7-1.3c1-0.6,1.8-1.5,2.5-2.7c0.6-1.2,1-2.6,1-4.1c0-1.8-0.5-3.4-1.4-4.8
		c-0.9-1.3-2.2-2.3-3.9-2.8c-1.7-0.5-4-0.8-7.2-0.8h-11.3V929.5z"/>
	<path class="st3" d="M579.9,911.4c0-8.1,2.2-14.5,6.5-19.1c4.4-4.6,10-6.9,16.9-6.9c4.5,0,8.6,1.1,12.2,3.2c3.6,2.2,6.4,5.2,8.3,9
		c1.9,3.9,2.9,8.2,2.9,13.1c0,5-1,9.4-3,13.3c-2,3.9-4.8,6.9-8.5,8.9c-3.7,2-7.6,3-11.9,3c-4.6,0-8.7-1.1-12.4-3.3s-6.4-5.3-8.2-9.1
		C580.8,919.8,579.9,915.7,579.9,911.4z M586.5,911.5c0,5.9,1.6,10.5,4.8,13.9c3.2,3.4,7.2,5.1,11.9,5.1c4.9,0,8.9-1.7,12-5.1
		s4.7-8.3,4.7-14.6c0-4-0.7-7.5-2-10.4c-1.3-3-3.3-5.3-5.9-6.9s-5.5-2.5-8.7-2.5c-4.6,0-8.5,1.6-11.8,4.7
		C588.2,898.9,586.5,904.2,586.5,911.5z"/>
	<path class="st3" d="M687.1,886.3h6.5v28.3c0,4.9-0.6,8.8-1.7,11.7c-1.1,2.9-3.1,5.2-6,7.1c-2.9,1.8-6.7,2.7-11.4,2.7
		c-4.6,0-8.3-0.8-11.3-2.4c-2.9-1.6-5-3.9-6.2-6.9c-1.2-3-1.9-7.1-1.9-12.3v-28.3h6.5v28.3c0,4.3,0.4,7.4,1.2,9.4
		c0.8,2,2.1,3.6,4.1,4.7c1.9,1.1,4.3,1.6,7.1,1.6c4.8,0,8.2-1.1,10.2-3.2c2-2.2,3-6.3,3-12.5V886.3z"/>
	<polygon class="st3" points="736.8,935.3 736.8,892.1 720.7,892.1 720.7,886.3 759.5,886.3 759.5,892.1 743.3,892.1 743.3,935.3 	
		"/>
	<rect x="787.2" y="886.3" class="st3" width="6.5" height="49"/>
	<path class="st3" d="M862.2,930c3,2.1,5.8,3.6,8.3,4.5l-1.9,4.5c-3.5-1.3-7-3.3-10.5-6c-3.6,2-7.6,3-12,3c-4.4,0-8.4-1.1-12.1-3.2
		c-3.6-2.1-6.4-5.1-8.3-9c-1.9-3.9-2.9-8.2-2.9-13.1c0-4.8,1-9.2,2.9-13.2c2-4,4.7-7,8.4-9.1c3.6-2.1,7.7-3.1,12.1-3.1
		c4.5,0,8.6,1.1,12.2,3.2c3.6,2.1,6.4,5.2,8.3,9c1.9,3.9,2.9,8.2,2.9,13.1c0,4-0.6,7.7-1.8,10.9C866.5,924.9,864.7,927.7,862.2,930z
		 M848,921.8c3.7,1,6.8,2.6,9.3,4.7c3.8-3.5,5.7-8.7,5.7-15.7c0-4-0.7-7.4-2-10.4c-1.3-3-3.3-5.3-5.9-6.9c-2.6-1.6-5.5-2.5-8.7-2.5
		c-4.8,0-8.8,1.7-12,5c-3.2,3.3-4.8,8.2-4.8,14.8c0,6.4,1.6,11.3,4.7,14.7c3.2,3.4,7.2,5.1,12.1,5.1c2.3,0,4.5-0.4,6.5-1.3
		c-2-1.3-4.2-2.2-6.4-2.8L848,921.8z"/>
	<path class="st3" d="M930.4,886.3h6.5v28.3c0,4.9-0.6,8.8-1.7,11.7c-1.1,2.9-3.1,5.2-6,7.1c-2.9,1.8-6.7,2.7-11.4,2.7
		c-4.6,0-8.3-0.8-11.3-2.4c-2.9-1.6-5-3.9-6.2-6.9c-1.2-3-1.9-7.1-1.9-12.3v-28.3h6.5v28.3c0,4.3,0.4,7.4,1.2,9.4
		c0.8,2,2.1,3.6,4.1,4.7c1.9,1.1,4.3,1.6,7.1,1.6c4.8,0,8.2-1.1,10.2-3.2c2-2.2,3-6.3,3-12.5V886.3z"/>
	<polygon class="st3" points="967.8,935.3 967.8,886.3 1003.2,886.3 1003.2,892.1 974.3,892.1 974.3,907.1 1001.4,907.1 
		1001.4,912.8 974.3,912.8 974.3,929.5 1004.3,929.5 1004.3,935.3 	"/>
	<path class="st4" d="M247.2,653.3h-52v171.3h23.3v-67.4h23.6c25.8,0,45.6-4.7,59.5-14s20.8-22.7,20.8-40
		C322.4,669.9,297.3,653.3,247.2,653.3z M284.3,731.6c-9.2,5.7-24.2,8.6-44.9,8.6h-21v-69.6h26.1c18.4,0,31.9,2.8,40.6,8.3
		c8.7,5.5,13,14,13,25.3C298.2,716.7,293.6,725.9,284.3,731.6z"/>
	<path class="st4" d="M491.9,654.1h-19.6l-79.3,172h22.3l1.2-2.6l33.1-69.8h-0.1l23.6-53.1c3.7-9,6.6-17.2,8.6-24.7
		c0.2,0.7,0.5,1.4,0.7,2.1c0-0.1,0.1-0.3,0.1-0.4c0.7,2.3,1.4,4.6,2.1,7v0.1c2.1,6,4.3,11.3,6.3,15.9l23.3,53.1l32.3,67.4l1.2,2.5
		l1.2,2.6h21.7L491.9,654.1z"/>
	<path class="st4" d="M858.5,653.3l-31.6,105.6c-4.8,15.9-8.1,29.4-9.9,40.5c-3-15.2-6.7-28.9-11.1-41l-37.7-105.1h-24.7
		l-35.9,104.2c-4.8,13.7-8.5,27.7-11,42c-2-12-5.2-25.5-9.6-40.3l-31.7-105.8h-24.7L684,824.6h23l39.2-114
		c4.4-12.3,7.6-23.5,9.6-33.9c0.1,1.6,1.3,6.2,3.7,13.9c2.4,7.7,4.5,14.1,6.4,19.2l40.5,114.7h23L883,653.2L858.5,653.3z"/>
	<path class="st4" d="M1072.1,750.4c-7.9-7.3-22.4-14.2-43.4-20.6c-12.5-3.8-21.8-7.3-27.9-10.5c-6.1-3.2-10.4-6.6-13-10.4
		c-2.6-3.8-3.8-8.7-3.8-14.6c0-8,3.5-14.3,10.4-18.9c6.9-4.5,16.6-6.8,28.9-6.8c15.6,0,31.7,3,48.3,8.9l7.3-17.3
		c-16.7-6.2-35.1-9.4-55-9.4c-19.1,0-34.5,3.9-46.1,11.7c-11.6,7.8-17.4,18.3-17.4,31.5c0,12.6,4,22.8,12,30.6
		c8,7.8,21.3,14.6,40,20.3c13.4,4.1,23.3,7.7,29.8,10.9s11.2,6.7,14,10.5s4.2,8.6,4.2,14.6c0,9-3.9,16-11.8,21
		c-7.9,5-19.6,7.6-35.1,7.6c-9.5,0-19.1-0.9-28.8-2.6c-9.7-1.7-18.7-4.1-26.9-7v19.2c12.8,5.2,31.1,7.8,54.9,7.8
		c22,0,39.3-4.2,52.1-12.6c12.8-8.4,19.2-20.2,19.2-35.3C1084,767.3,1080,757.8,1072.1,750.4z"/>
</g>
</svg>
